<svg width="33" height="30" viewBox="0 0 33 30" fill="none" xmlns="http://www.w3.org/2000/svg">
<path fill-rule="evenodd" clip-rule="evenodd" d="M3.12598 10.0001H29.874C30.359 10.0003 30.8356 10.1206 31.2662 10.349C31.6966 10.5772 32.0679 10.906 32.3552 11.3058C32.6424 11.7054 32.8391 12.1665 32.9342 12.6531C33.0293 13.1397 33.0212 13.6429 32.9104 14.126L30.1326 26.1984C30.1326 26.1984 30.1326 26.1984 30.1326 26.1984C29.8867 27.2673 29.3164 28.2283 28.4994 28.9217C27.6812 29.616 26.664 29.9998 25.609 30H7.39125C6.33621 29.9998 5.31878 29.616 4.50057 28.9217C3.68358 28.2284 3.11332 27.2675 2.86741 26.1985C2.8674 26.1985 2.86743 26.1986 2.86741 26.1985L0.0898515 14.1286C0.08612 14.1124 0.0826226 14.0961 0.0793602 14.0798C-0.0216496 13.6109 -0.026302 13.1242 0.0657853 12.6531C0.160915 12.1665 0.357596 11.7054 0.644774 11.3058C0.932118 10.906 1.30344 10.5772 1.73379 10.349C2.16442 10.1206 2.64105 10.0003 3.12598 10.0001ZM3.18537 13.3334C3.18537 13.3383 3.1859 13.3431 3.18692 13.3475C3.18953 13.3589 3.19202 13.3703 3.1944 13.3817L5.96426 25.4182C6.05012 25.7914 6.24573 26.111 6.50693 26.3327C6.76688 26.5533 7.07832 26.6666 7.39125 26.6667M3.18537 13.3334H29.8146C29.8146 13.3382 29.8141 13.3429 29.8132 13.3472C29.8132 13.3471 29.8131 13.3473 29.8132 13.3472L27.0357 25.4182C26.9499 25.7915 26.7543 26.111 26.4931 26.3327C26.2331 26.5533 25.9217 26.6666 25.6087 26.6667C25.6088 26.6667 25.6087 26.6667 25.6087 26.6667H7.39125" fill="white"/>
<path fill-rule="evenodd" clip-rule="evenodd" d="M14.293 0.264348C15.0332 0.76162 15.248 1.79266 14.7728 2.56725L8.63792 12.5672C8.16272 13.3418 7.17743 13.5666 6.43722 13.0693C5.69702 12.572 5.48219 11.541 5.95739 10.7664L12.0923 0.76647C12.5675 -0.00811616 13.5527 -0.232924 14.293 0.264348ZM18.707 0.264348C19.4472 -0.232924 20.4325 -0.00811616 20.9077 0.76647L27.0425 10.7664C27.5177 11.541 27.3029 12.572 26.5627 13.0693C25.8225 13.5666 24.8372 13.3418 24.362 12.5672L18.2271 2.56725C17.7519 1.79266 17.9668 0.76162 18.707 0.264348ZM11.8988 16.6668C12.7784 16.6668 13.4915 17.413 13.4915 18.3334V21.6667C13.4915 22.5872 12.7784 23.3334 11.8988 23.3334C11.0192 23.3334 10.3061 22.5872 10.3061 21.6667V18.3334C10.3061 17.413 11.0192 16.6668 11.8988 16.6668ZM21.1011 16.6668C21.9807 16.6668 22.6938 17.413 22.6938 18.3334V21.6667C22.6938 22.5872 21.9807 23.3334 21.1011 23.3334C20.2215 23.3334 19.5084 22.5872 19.5084 21.6667V18.3334C19.5084 17.413 20.2215 16.6668 21.1011 16.6668Z" fill="white"/>
</svg>
