<svg width="32" height="32" viewBox="0 0 32 32" fill="none" xmlns="http://www.w3.org/2000/svg">
<path d="M31.8969 9.44495C31.879 8.10134 31.6271 6.77109 31.1524 5.51369C30.7407 4.45309 30.112 3.48987 29.3064 2.68559C28.5008 1.8813 27.5359 1.25362 26.4736 0.842666C25.2303 0.376728 23.9168 0.124788 22.5891 0.0975719C20.8796 0.0212885 20.3376 0 15.9982 0C11.6588 0 11.1026 1.18958e-07 9.4056 0.0975719C8.07847 0.124988 6.76561 0.376925 5.52288 0.842666C4.46034 1.25334 3.49537 1.88091 2.68971 2.68523C1.88404 3.48956 1.25542 4.45293 0.844069 5.51369C0.376421 6.75398 0.124608 8.06495 0.0995113 9.38996C0.0231008 11.0983 0 11.6394 0 15.9716C0 20.3038 -1.32396e-08 20.8573 0.0995113 22.5533C0.126166 23.8803 0.376721 25.1895 0.844069 26.4331C1.25611 27.4935 1.8852 28.4565 2.69113 29.2605C3.49707 30.0645 4.46213 30.6918 5.52466 31.1023C6.76399 31.587 8.07707 31.857 9.40738 31.9007C11.1186 31.9769 11.6606 32 16 32C20.3394 32 20.8956 32 22.5926 31.9007C23.9203 31.8746 25.2339 31.6232 26.4771 31.1573C27.5392 30.7459 28.5038 30.1181 29.3094 29.3138C30.1149 28.5096 30.7438 27.5466 31.1559 26.4863C31.6233 25.2445 31.8738 23.9353 31.9005 22.6065C31.9769 20.8999 32 20.3588 32 16.0248C31.9964 11.6927 31.9964 11.1427 31.8969 9.44495ZM15.9876 24.1641C11.4491 24.1641 7.77254 20.4936 7.77254 15.9627C7.77254 11.4319 11.4491 7.76139 15.9876 7.76139C18.1663 7.76139 20.2558 8.62546 21.7965 10.1635C23.3371 11.7016 24.2026 13.7876 24.2026 15.9627C24.2026 18.1379 23.3371 20.2239 21.7965 21.762C20.2558 23.3 18.1663 24.1641 15.9876 24.1641ZM24.5295 9.37044C24.2779 9.37067 24.0287 9.32137 23.7962 9.22534C23.5637 9.12932 23.3524 8.98846 23.1745 8.81083C22.9966 8.6332 22.8555 8.42229 22.7593 8.19016C22.6631 7.95803 22.6137 7.70924 22.6139 7.45803C22.6139 7.20701 22.6635 6.95844 22.7597 6.72653C22.8559 6.49461 22.997 6.28389 23.1748 6.10638C23.3526 5.92888 23.5636 5.78808 23.7959 5.69202C24.0282 5.59596 24.2772 5.54651 24.5287 5.54651C24.7801 5.54651 25.0291 5.59596 25.2614 5.69202C25.4937 5.78808 25.7048 5.92888 25.8826 6.10638C26.0604 6.28389 26.2014 6.49461 26.2976 6.72653C26.3938 6.95844 26.4434 7.20701 26.4434 7.45803C26.4434 8.51536 25.5869 9.37044 24.5295 9.37044Z" fill="#0D0D0D"/>
<path d="M15.9823 21.2565C18.9294 21.2565 21.3186 18.8713 21.3186 15.9291C21.3186 12.9868 18.9294 10.6017 15.9823 10.6017C13.0351 10.6017 10.646 12.9868 10.646 15.9291C10.646 18.8713 13.0351 21.2565 15.9823 21.2565Z" fill="#0D0D0D"/>
</svg>
