<svg width="19" height="19" viewBox="0 0 19 19" fill="none" xmlns="http://www.w3.org/2000/svg">
<path fill-rule="evenodd" clip-rule="evenodd" d="M13.6088 12.2535L18.7196 17.3644C18.8992 17.5442 19.0001 17.788 19 18.0421C18.9999 18.2962 18.8989 18.5399 18.7191 18.7196C18.5393 18.8992 18.2956 19.0001 18.0415 19C17.7873 18.9999 17.5436 18.8989 17.364 18.7191L12.2532 13.6082C10.7254 14.7916 8.80421 15.3485 6.88041 15.1656C4.9566 14.9827 3.17473 14.0737 1.89728 12.6237C0.619824 11.1736 -0.0572491 9.29133 0.00379633 7.35977C0.0648418 5.42821 0.85942 3.59245 2.22589 2.22594C3.59236 0.859442 5.42807 0.0648434 7.35958 0.00379643C9.2911 -0.0572506 11.1733 0.619839 12.6233 1.89732C14.0734 3.17481 14.9823 4.95673 15.1652 6.88058C15.3481 8.80443 14.7912 10.7257 13.6079 12.2535H13.6088ZM7.60035 13.2995C9.11202 13.2995 10.5618 12.6989 11.6307 11.63C12.6996 10.5611 13.3001 9.11129 13.3001 7.59959C13.3001 6.08789 12.6996 4.63811 11.6307 3.56917C10.5618 2.50024 9.11202 1.89972 7.60035 1.89972C6.08869 1.89972 4.63894 2.50024 3.57003 3.56917C2.50112 4.63811 1.90062 6.08789 1.90062 7.59959C1.90062 9.11129 2.50112 10.5611 3.57003 11.63C4.63894 12.6989 6.08869 13.2995 7.60035 13.2995Z" fill="white"/>
</svg>
